# xmcd
#
# Track frame offsets:
#	150
#	20483
#	36599
#	62641
#	83155
#	104012
#	124988
#	146310
#
# Disc length: 2207 seconds
# Revision: 0
# Processed by: cddbd v1.5.2PL0 Copyright (c) Steve Scherf et al.
# Submitted via: dBpowerAMP V12.0
#
DISCID=6f089d08
DTITLE=The Halley DeVestern Band - Fabbo Boffo Smasho
DYEAR=2013
DGENRE=Blues
TTITLE0=Muscle Memory
TTITLE1=Kangaroo Momma
TTITLE2=Money Ain't Time (Remix)
TTITLE3=Tore Up (From The Floor Up)
TTITLE4=Boil
TTITLE5=American Pain
TTITLE6=Code 9
TTITLE7=The Jesus I Know
EXTD=
EXTT0=
EXTT1=
EXTT2=
EXTT3=
EXTT4=
EXTT5=
EXTT6=
EXTT7=
PLAYORDER=
